<?xml version="1.0" encoding="UTF-8"?>
<svg width="512px" height="512px" viewBox="0 0 512 512" version="1.1" xmlns="http://www.w3.org/2000/svg" xmlns:xlink="http://www.w3.org/1999/xlink">
    <!-- Generator: Sketch 43.2 (39069) - http://www.bohemiancoding.com/sketch -->
    <title>Shape</title>
    <desc>Created with Sketch.</desc>
    <defs></defs>
    <g id="Page-1" stroke="none" stroke-width="1" fill="none" fill-rule="evenodd">
        <g id="certificate" fill-rule="nonzero" fill="#B10015">
            <path d="M458.622,255.92 L504.607,210.915 C518.315,197.938 511.923,174.876 493.943,170.576 L431.293,154.586 L448.954,92.571 C453.945,74.733 437.125,57.908 419.293,62.9 L357.299,80.567 L341.315,17.896 C337.085,0.197 313.765,-6.276 300.99,7.228 L256,53.57 L211.011,7.229 C198.381,-6.122 174.964,-0.005 170.686,17.897 L154.702,80.568 L92.707,62.901 C74.87,57.907 58.056,74.738 63.046,92.572 L80.707,154.587 L18.057,170.577 C0.069,174.878 -6.31,197.944 7.392,210.915 L53.377,255.92 L7.392,300.924 C-6.316,313.901 0.076,336.963 18.056,341.263 L80.706,357.253 L63.045,419.268 C58.054,437.106 74.874,453.931 92.706,448.939 L154.7,431.272 L170.684,493.943 C175.123,512.518 198.38,517.961 211.009,504.611 L256,458.61 L300.989,504.611 C313.489,518.099 336.976,512.097 341.314,493.943 L357.298,431.272 L419.292,448.939 C437.128,453.933 453.943,437.102 448.953,419.268 L431.292,357.253 L493.942,341.263 C511.929,336.961 518.308,313.896 504.606,300.924 L458.622,255.92 L458.622,255.92 Z" id="Shape"></path>
        </g>
    </g>
</svg>