<svg width="16" height="16" xmlns="http://www.w3.org/2000/svg">
    <g fill="#339BD2" fill-rule="nonzero">
        <path d="M13.89 7.691V14a2 2 0 0 1-2 2H4.11a2 2 0 0 1-2-2V7.691h1.5v6.219c0 .293.181.537.419.582l.081.008h7.78c.276 0 .5-.264.5-.59V7.69h1.5z"/>
        <path d="M7.593.133.36 5.26c-.481.341-.481 1.137 0 1.478l7.232 5.128c.249.177.565.177.814 0L15.64 6.74c.481-.341.481-1.137 0-1.478L8.407.133a.692.692 0 0 0-.814 0zM8 2l6 4-6 4-6-4 6-4z"/>
        <path d="M15.25 12.312c-.5 0-.75-.25-.75-.75V6.15c0-.5.25-.75.75-.75s.75.25.75.75v5.412c0 .5-.25.75-.75.75z"/>
    </g>
</svg>
