<svg width="240" height="78" viewBox="0 0 240 78" fill="none" xmlns="http://www.w3.org/2000/svg">
    <path d="M204.478 41.96C204.478 33.6851 199.494 30.394 194.134 30.394C191.313 30.394 189.057 31.7105 187.458 33.8732V20.8026C187.458 20.6146 187.27 20.4265 187.082 20.4265H180.594C180.406 20.4265 180.218 20.6146 180.218 20.8026V57.1934C180.218 57.3814 180.406 57.5695 180.594 57.5695H187.082C187.27 57.5695 187.458 57.3814 187.458 57.1934V41.772C187.458 38.6689 189.527 36.224 192.348 36.224C195.169 36.224 197.426 38.7629 197.426 41.866V57.1934C197.426 57.3814 197.614 57.5695 197.802 57.5695H204.102C204.29 57.5695 204.478 57.3814 204.478 57.1934C204.478 54.7485 204.572 41.866 204.478 41.96Z" fill="black" />
    <path d="M125.584 57.7581C121.447 57.7581 118.156 56.6297 115.805 54.2789C113.454 51.9281 112.326 48.6369 112.326 44.4054C112.326 39.9859 113.454 36.6007 115.617 34.2499C117.779 31.805 120.789 30.6766 124.644 30.6766C128.311 30.6766 131.132 31.711 133.201 33.8738C135.27 35.9425 136.21 38.8575 136.21 42.6188V46.098H119.566C119.66 48.1668 120.224 49.2011 121.353 50.3295C124.08 53.1505 130.004 52.1161 132.543 50.2355C132.731 50.1414 132.919 50.1414 133.013 50.2355L136.116 53.3386C136.304 53.5266 136.304 53.7147 136.116 53.9028C133.389 56.4416 129.816 57.7581 125.584 57.7581ZM124.644 35.6604C123.139 35.6604 122.011 36.1305 121.165 37.0709C120.318 38.0112 119.848 39.4217 119.66 41.2083H129.534C129.534 39.4217 129.063 38.1052 128.123 37.0709C127.277 36.1305 126.148 35.6604 124.644 35.6604Z" fill="black" />
    <path d="M145.802 28.0441C148.035 28.0441 149.846 26.2337 149.846 24.0004C149.846 21.7671 148.035 19.9567 145.802 19.9567C143.569 19.9567 141.758 21.7671 141.758 24.0004C141.758 26.2337 143.569 28.0441 145.802 28.0441Z" fill="black" />
    <path d="M143.074 57.5676H148.528C148.998 57.5676 149.468 57.1914 149.468 56.6272V31.7085C149.468 31.2384 149.092 30.7682 148.528 30.7682H143.074C142.604 30.7682 142.134 31.1443 142.134 31.7085V56.6272C142.134 57.1914 142.604 57.5676 143.074 57.5676Z" fill="black" />
    <path d="M225.541 31.2405V47.3201C225.259 50.1411 223.284 52.3039 220.651 52.3039C217.83 52.3039 215.573 49.765 215.573 46.6619V31.2405C215.573 31.0524 215.385 30.8644 215.197 30.8644H208.897C208.709 30.8644 208.521 31.0524 208.521 31.2405C208.521 33.6854 208.521 46.4738 208.521 46.4738C208.521 54.7487 213.504 58.0399 218.864 58.0399C221.685 58.0399 223.942 56.7234 225.541 54.5607V57.1936C225.541 57.3817 225.729 57.5697 225.917 57.5697H232.311C232.499 57.5697 232.687 57.3817 232.687 57.1936V31.2405C232.687 31.0524 232.499 30.8644 232.311 30.8644H225.917C225.635 30.8644 225.541 31.0524 225.541 31.2405Z" fill="black" />
    <path d="M162.069 38.1052C162.069 34.908 168.087 35.0021 172.036 38.1052C172.224 38.1992 172.413 38.1992 172.601 38.1052L175.892 34.814C176.08 34.6259 176.08 34.3438 175.892 34.2498C173.165 32.2751 169.686 30.5825 165.266 30.5825C160 30.5825 154.922 32.7453 155.016 38.4813C155.016 45.9099 163.291 45.0636 168.181 47.8846C172.13 50.4235 164.89 54.6549 158.402 49.5772C158.214 49.4831 158.026 49.4831 157.837 49.5772L153.982 53.4325C153.794 53.6206 153.794 53.8086 153.982 53.9967C160.47 60.2969 176.456 58.7924 176.456 49.107C176.55 40.1739 162.069 42.2426 162.069 38.1052Z" fill="black" />
    <path d="M110.633 27.2913V20.803C110.633 20.6149 110.445 20.4269 110.257 20.4269H85.9965C85.0562 20.4269 84.304 21.1791 84.304 22.1195V57.1937C84.304 57.3818 84.492 57.5699 84.6801 57.5699H91.1684C91.3564 57.5699 91.5445 57.3818 91.5445 57.1937V42.7127H107.436C107.624 42.7127 107.812 42.5246 107.812 42.3365V35.8483C107.812 35.6602 107.624 35.4721 107.436 35.4721H91.6385V27.8555H110.163C110.445 27.6674 110.633 27.4793 110.633 27.2913Z" fill="black" />
    <path d="M37.9468 40.2695C38.0408 40.1755 38.0408 40.1755 38.1348 40.0815C38.2289 39.9874 38.3229 39.8934 38.4169 39.7994L38.605 39.6113L39.2632 38.9531L40.2035 38.0127L40.9558 37.2605L41.7081 36.5082L42.4603 35.756L43.1186 35.0977L44.0589 34.1574C44.247 33.9693 44.435 33.7813 44.6231 33.5932C44.9992 33.3111 45.3754 32.935 45.7515 32.6529C46.1276 32.3708 46.4097 32.0887 46.7858 31.9006C47.256 31.5245 47.8202 31.2424 48.3844 30.8662C48.9486 30.5842 49.4188 30.3021 49.983 30.02C50.4531 29.7379 51.0173 29.5498 51.5815 29.3617C51.8636 29.2677 52.1457 29.1737 52.5219 28.9856C52.7099 28.8916 52.804 28.8916 52.992 28.7975C51.5815 23.4377 49.1367 18.4539 45.7515 14.2224C45.0933 13.4702 44.0589 13 43.0245 13H15.0027C14.5326 13 14.2505 13.6582 14.7206 13.9403C24.218 20.8988 32.1167 29.9259 37.9468 40.2695C37.9468 40.3636 37.9468 40.3636 37.9468 40.2695Z" fill="#00D6B9" />
    <path d="M26.85 65.0001C41.3311 65.0001 53.9315 57.0073 60.5138 45.1592C60.7018 44.783 60.9839 44.3129 61.172 43.9368C60.7959 44.595 60.5138 45.1592 60.0436 45.7234C59.8555 45.9114 59.7615 46.0995 59.5734 46.2876C59.3854 46.5697 59.1973 46.7577 59.0092 47.0398C58.8212 47.2279 58.7271 47.416 58.5391 47.604C58.1629 47.9802 57.8808 48.2623 57.5047 48.6384C57.3166 48.8265 57.1286 49.0145 56.8465 49.1086C56.5644 49.2966 56.3763 49.4847 56.0942 49.6728C55.9061 49.7668 55.8121 49.8608 55.6241 49.9549C55.436 50.0489 55.2479 50.1429 55.0599 50.237C54.6837 50.425 54.3076 50.6131 53.9315 50.8012C53.6494 50.9892 53.2732 51.0832 52.8971 51.1773C52.521 51.2713 52.1448 51.4594 51.7687 51.5534C51.2045 51.7415 50.6403 51.8355 50.0761 51.9295C49.7 52.0236 49.2298 52.0236 48.7596 52.1176C48.2895 52.1176 47.8193 52.1176 47.4432 52.1176C46.973 52.1176 46.4088 52.1176 45.9387 52.0236C45.5625 52.0236 45.1864 51.9295 44.8103 51.8355C44.5282 51.7415 44.152 51.7415 43.8699 51.6474C43.6819 51.6474 43.4938 51.5534 43.3057 51.5534C42.8356 51.4594 42.3654 51.2713 41.8952 51.1773C41.6132 51.0832 41.4251 51.0833 41.143 50.9892C40.7669 50.8952 40.3907 50.8012 40.1086 50.7071C39.8265 50.6131 39.5444 50.5191 39.2623 50.425C38.9802 50.331 38.6981 50.237 38.416 50.1429C38.228 50.0489 38.0399 50.0489 37.8518 49.9549C37.6638 49.8608 37.3817 49.7668 37.1936 49.6728C37.0055 49.5787 36.9115 49.5787 36.7234 49.4847C36.4413 49.3907 36.0652 49.2966 35.7831 49.1086C35.595 49.0145 35.407 49.0145 35.2189 48.9205C34.9368 48.8265 34.7488 48.7324 34.4667 48.6384C34.1846 48.5444 33.9025 48.4503 33.7144 48.3563C33.5263 48.2623 33.3383 48.2623 33.2442 48.1682C33.0562 48.0742 32.8681 47.9802 32.586 47.8861C32.3979 47.7921 32.3039 47.7921 32.1158 47.6981C31.9278 47.604 31.7397 47.51 31.6457 47.51C31.4576 47.416 31.3636 47.416 31.1755 47.3219C31.0815 47.2279 30.8934 47.2279 30.7994 47.1339C30.7053 47.0398 30.5173 47.0398 30.4232 46.9458C30.3292 46.8518 30.1411 46.8518 30.0471 46.7577C29.859 46.6637 29.671 46.5697 29.4829 46.4756C29.2948 46.3816 29.1068 46.2876 28.9187 46.1935C28.7306 46.0995 28.5426 46.0055 28.3545 45.9114C28.1664 45.8174 28.0724 45.7234 27.8844 45.6293C19.1393 41.3038 11.4286 35.5678 4.94033 28.5154C4.65823 28.1392 4 28.4213 4 28.8915V53.6221V55.5968C4 56.7252 4.5642 57.8536 5.50453 58.5119C11.6167 62.6493 18.9512 65.0001 26.85 65.0001Z" fill="#3370FF" />
    <path d="M60.5132 45.1591L60.6072 44.877C60.6072 44.971 60.5132 45.065 60.5132 45.1591Z" fill="#133C9A" />
    <path d="M61.0767 44.0302L61.1707 43.9362C61.1707 43.9362 61.1707 44.0302 61.0767 44.0302Z" fill="#133C9A" />
    <path d="M69.3529 30.1143C66.4378 28.7038 63.1467 27.8575 59.6675 27.8575C57.5987 27.8575 55.6241 28.1396 53.6494 28.7038C53.4613 28.7979 53.1792 28.7979 52.9911 28.8919C52.8031 28.9859 52.709 28.9859 52.521 29.08C52.2389 29.174 51.9568 29.268 51.5806 29.4561C51.0164 29.6442 50.5463 29.9263 49.9821 30.1143C49.4179 30.3964 48.8537 30.6785 48.3835 30.9606C47.8193 31.2427 47.3492 31.6189 46.785 31.995C46.4088 32.2771 46.0327 32.5592 45.7506 32.7473C45.3745 33.0294 44.9983 33.3115 44.6222 33.6876C44.4341 33.8756 44.2461 34.0637 44.058 34.2518L43.1177 35.1921L42.5535 35.8503L41.8012 36.6026L41.049 37.3549L40.2967 38.1071L39.3564 39.0475L38.6981 39.7057L38.5101 39.8938C38.416 39.9878 38.322 40.0818 38.228 40.1759C38.1339 40.2699 38.1339 40.2699 38.0399 40.3639C37.9459 40.458 37.8518 40.552 37.7578 40.552C37.6638 40.646 37.5697 40.74 37.4757 40.8341C35.0308 42.9968 32.3979 44.9715 29.4829 46.4761C29.671 46.5701 29.859 46.6641 30.0471 46.7582C30.1411 46.8522 30.3292 46.8522 30.4232 46.9462C30.5173 47.0403 30.7053 47.0403 30.7994 47.1343C30.8934 47.2283 31.0815 47.2283 31.1755 47.3224C31.3636 47.4164 31.4576 47.4164 31.6457 47.5104C31.8337 47.6045 32.0218 47.6985 32.1158 47.6985C32.3039 47.7925 32.3979 47.7925 32.586 47.8865C32.7741 47.9806 32.9621 48.0746 33.2442 48.1686C33.4323 48.2627 33.6204 48.2627 33.7144 48.3567C33.9965 48.4507 34.1846 48.5448 34.4667 48.6388C34.7488 48.7328 34.9368 48.8269 35.2189 48.9209C35.407 49.0149 35.595 49.0149 35.7831 49.109C36.0652 49.203 36.4413 49.297 36.7234 49.4851C36.9115 49.5791 37.0055 49.5791 37.1936 49.6732C37.3817 49.7672 37.6638 49.8612 37.8518 49.9553C38.0399 50.0493 38.228 50.0493 38.416 50.1433C38.6981 50.2374 38.9802 50.3314 39.2623 50.4254C39.5444 50.5195 39.8265 50.6135 40.1086 50.7075C40.4848 50.8016 40.8609 50.8956 41.143 50.9896C41.4251 51.0837 41.6132 51.0837 41.8953 51.1777C42.3654 51.2717 42.8356 51.4598 43.3057 51.5538C43.4938 51.5538 43.6819 51.6479 43.8699 51.6479C44.2461 51.7419 44.5282 51.8359 44.8103 51.8359C45.1864 51.93 45.5625 51.93 45.9387 52.024C46.4088 52.118 46.973 52.118 47.4432 52.118C47.9134 52.118 48.3835 52.118 48.7597 52.118C49.2298 52.118 49.6059 52.024 50.0761 51.93C50.6403 51.8359 51.2045 51.7419 51.7687 51.5538C52.1448 51.4598 52.521 51.3658 52.8971 51.1777C53.2732 51.0837 53.5553 50.8956 53.9315 50.8016C54.3076 50.6135 54.6837 50.4254 55.0599 50.2374C55.2479 50.1433 55.436 50.0493 55.6241 49.9553C55.8121 49.8612 56.0002 49.7672 56.0942 49.6732C56.3763 49.4851 56.5644 49.297 56.8465 49.109C57.0345 48.9209 57.2226 48.7328 57.5047 48.6388C57.8808 48.3567 58.257 47.9806 58.5391 47.6044C58.7271 47.4164 58.8212 47.2283 59.0092 47.0403C59.1973 46.8522 59.3854 46.5701 59.5734 46.288C59.7615 46.0999 59.8555 45.9119 60.0436 45.7238C60.4197 45.1596 60.7959 44.5954 61.172 43.9372L61.5481 43.1849L64.9333 36.4145C66.0617 34.0637 67.5662 31.901 69.3529 30.1143Z" fill="#133C9A" />
</svg>
    