<svg width="16" height="16" xmlns="http://www.w3.org/2000/svg">
    <g fill="#339BD2" fill-rule="evenodd">
        <path d="M13.714 0H2.286A2.286 2.286 0 0 0 0 2.286v11.428A2.286 2.286 0 0 0 2.286 16h11.428A2.286 2.286 0 0 0 16 13.714V2.286A2.286 2.286 0 0 0 13.714 0zm0 1.47c.451 0 .817.365.817.816v11.428c0 .451-.366.817-.817.817H2.286a.816.816 0 0 1-.817-.817V2.286c0-.451.366-.817.817-.817h11.428z" fill-rule="nonzero"/>
        <circle cx="8" cy="8" r="1"/>
        <circle cx="4" cy="8" r="1"/>
        <circle cx="12" cy="8" r="1"/>
    </g>
</svg>
