<svg width="16" height="16" xmlns="http://www.w3.org/2000/svg">
    <g fill="#339BD2" fill-rule="nonzero">
        <path d="m8.637 15.69 7.196-9.251a.79.79 0 0 0 .074-.858L13.158.425a.805.805 0 0 0-.71-.425H3.552a.805.805 0 0 0-.711.425L.093 5.58a.79.79 0 0 0 .074.858l7.196 9.25a.809.809 0 0 0 1.274 0zM8 13.9 1.756 5.872l2.28-4.278h7.928l2.28 4.278L8 13.9z"/>
        <path d="M8.634 10.552a.8.8 0 0 1-1.195.082l-.073-.082-3.082-4a.8.8 0 0 1 1.195-1.058l.072.081 2.45 3.178 2.448-3.178a.8.8 0 0 1 1.031-.206l.09.06a.8.8 0 0 1 .207 1.032l-.06.09-3.083 4z"/>
    </g>
</svg>
