<svg width="16" height="16" xmlns="http://www.w3.org/2000/svg">
    <g fill="#339BD2" fill-rule="nonzero">
        <path d="M3.005 0a2 2 0 0 0-2 2v12.5H.75a.75.75 0 1 0 0 1.5h14.5a.75.75 0 1 0 0-1.5h-4.86V2a2 2 0 0 0-2-2H3.005zm-.5 14.5V2a.5.5 0 0 1 .5-.5H8.39a.5.5 0 0 1 .5.5v12.5H2.505z"/>
        <path d="M10.39 5h-1.5v9.5H.75a.75.75 0 1 0 0 1.5h14.5a.75.75 0 1 0 0-1.5h-.241V7a2 2 0 0 0-2-2H10.39zm0 9.5v-8h2.619a.5.5 0 0 1 .5.5v7.5H10.39zM7.613 4.401c0 .5-.25.75-.75.75H4.45c-.5 0-.75-.25-.75-.75s.25-.75.75-.75h2.413c.5 0 .75.25.75.75z"/>
        <path d="M7.612 7.401c0 .5-.25.75-.75.75H4.45c-.5 0-.75-.25-.75-.75s.25-.75.75-.75h2.412c.5 0 .75.25.75.75z"/>
    </g>
</svg>
