<svg width="16" height="16" xmlns="http://www.w3.org/2000/svg">
    <path d="M11.01.004a4.77 4.77 0 0 0-2.935 1.171L8 1.243l-.075-.068A4.784 4.784 0 0 0 0 4.784C0 8.16 2.534 11.82 7.521 15.83c.28.225.678.225.958 0C13.466 11.821 16 8.16 16 4.784A4.784 4.784 0 0 0 11.216 0l-.207.004zm.206 1.524a3.256 3.256 0 0 1 3.256 3.256l-.003.187c-.095 2.635-2.186 5.71-6.34 9.173L8 14.25l-.129-.106c-4.253-3.545-6.343-6.684-6.343-9.36A3.256 3.256 0 0 1 7.389 2.83a.764.764 0 0 0 1.222 0 3.248 3.248 0 0 1 2.605-1.302z" fill="#339BD2" fill-rule="nonzero"/>
</svg>
